# xmcd
#
# Track frame offsets: 
#        150
#        5545
#        15305
#        29062
#        44860
#        65410
#        89690
#        108025
#        126475
#        144582
#        178747
#        206097
#        232652
#        248837
#        272437
#        295705
#
# Disc length: 4345 seconds
#
# Revision: 10
# Processed by: cddbd v1.5.2PL0 Copyright (c) Steve Scherf et al.
# Submitted via: ExactAudioCopy v0.99pb4
#
DISCID=e410f710
DTITLE=Alicia Keys - Unplugged
DYEAR=2005
DGENRE=Jazz/R&B/Soul
TTITLE0=Intro Alicia's Prayer (Acappella)
TTITLE1=Karma
TTITLE2=Heartburn
TTITLE3=A Woman's Worth (Live)
TTITLE4=Unbreakable
TTITLE5=How Come You Don't Call Me
TTITLE6=If I Was Your Woman
TTITLE7=If I Ain't Got You
TTITLE8=Every Little Bit Hurts
TTITLE9=Streets Of New York (City Life)
TTITLE10=Wild Horses (feat. Adam Levine)
TTITLE11=Diary
TTITLE12=You Don't Know My Name
TTITLE13=Stolen Moments
TTITLE14=Fallin'
TTITLE15=Love It Or Leave It Alone (feat. Mos Def and Common) - Welcome 
TTITLE15=To Jamrock (with Damian Marley, Mos Def and Common and Friends)
EXTD=Label: j records - Sony BMG Music Entertainment\n82876 71808 2
EXTT0=
EXTT1=
EXTT2=
EXTT3=
EXTT4=
EXTT5=
EXTT6=
EXTT7=
EXTT8=
EXTT9=
EXTT10=
EXTT11=
EXTT12=
EXTT13=
EXTT14=
EXTT15=
PLAYORDER=
